#!OML:ASF E:\Style6\Style6.ASF
:FULLY-SPECIFIED
:DEGREES
1980
root 0.569864 18.2685 0.882124 10.9028 -3.26918 -1.0234
lowerback -3.74568 -2.01061 3.42921
upperback -3.02542 -2.75806 4.51057
thorax -0.953908 -1.39654 2.64148
lowerneck -4.96477 3.14135 2.987
upperneck 12.8187 5.07218 -8.63576
head 4.95142 2.11679 -2.87211
rclavicle 4.2043e-014 -2.22639e-014
rhumerus -36.52 -9.83038 -38.7773
rradius 56.5176
rwrist 22.1339
rhand 5.25009 9.86476
rfingers 7.12502
rthumb 30.6085 -17.6106
lclavicle 4.2043e-014 -2.22639e-014
lhumerus -133.72 -62.6606 174.608
lradius 91.9612
lwrist 32.9584
lhand -5.07458 8.68213
lfingers 7.12502
lthumb 20.7218 37.5958
rfemur -12.9699 16.1842 16.1896
rtibia 11.4259
rfoot -6.33597 -16.7937
rtoes -7.35801
lfemur -11.547 -15.2575 -16.5809
ltibia 15.0363
lfoot -6.03711 19.4084
ltoes -11.7248
1981
root 0.564793 18.2742 0.886689 10.7854 -3.33924 -1.07329
lowerback -3.92529 -2.03062 3.36993
upperback -2.90696 -2.8015 4.53035
thorax -0.726483 -1.41565 2.68292
lowerneck -4.55451 3.13051 3.02326
upperneck 13.4313 5.09607 -8.60776
head 5.07037 2.12665 -2.87553
rclavicle -4.91992e-014 2.70347e-014
rhumerus -36.339 -10.8924 -38.7605
rradius 56.4043
rwrist 22.499
rhand 4.14136 10.5508
rfingers 7.12502
rthumb 29.5506 -17.1169
lclavicle -4.91992e-014 2.70347e-014
lhumerus -132.916 -62.9728 173.891
lradius 91.8503
lwrist 32.2716
lhand -4.80449 8.55006
lfingers 7.12502
lthumb 20.9813 37.4352
rfemur -12.6125 16.5649 16.2625
rtibia 11.0356
rfoot -6.19787 -17.1542
rtoes -7.62263
lfemur -11.1768 -15.6347 -16.5452
ltibia 14.6845
lfoot -6.00108 19.8462
ltoes -11.0361
1982
root 0.558776 18.2791 0.891413 10.6882 -3.43769 -1.01409
lowerback -4.15136 -2.04366 3.21306
upperback -2.78275 -2.83549 4.49889
thorax -0.465017 -1.42915 2.72394
lowerneck -4.12548 3.11538 3.01754
upperneck 14.019 5.10456 -8.49917
head 5.17491 2.13292 -2.84822
rclavicle 1.58034e-014 -1.43125e-014
rhumerus -36.1409 -12.0932 -38.8189
rradius 56.2816
rwrist 22.8134
rhand 3.1897 11.2273
rfingers 7.12502
rthumb 28.6418 -16.5975
lclavicle 1.58034e-014 -1.43125e-014
lhumerus -132.284 -63.3504 173.355
lradius 91.7981
lwrist 31.8458
lhand -4.54902 8.52646
lfingers 7.12502
lthumb 21.2267 37.3842
rfemur -12.2797 17.0234 16.1926
rtibia 10.6136
rfoot -6.18424 -17.5563
rtoes -6.84393
lfemur -10.8459 -15.9534 -16.6282
ltibia 14.3554
lfoot -5.91066 20.2224
ltoes -10.5027
1983
root 0.550355 18.2828 0.893577 10.5652 -3.54098 -1.01834
lowerback -4.28885 -2.06275 3.06331
upperback -2.72008 -2.86819 4.50612
thorax -0.314922 -1.44298 2.80638
lowerneck -3.43937 3.05011 3.02241
upperneck 14.5659 5.04699 -8.43557
head 5.22004 2.11195 -2.84491
rclavicle 3.17062e-014 -3.18055e-015
rhumerus -35.9952 -13.2966 -38.8253
rradius 56.1653
rwrist 23.3261
rhand 2.42956 11.894
rfingers 7.12502
rthumb 27.9153 -16.0511
lclavicle 3.17062e-014 -3.18055e-015
lhumerus -131.839 -63.6265 173.077
lradius 91.7147
lwrist 31.7589
lhand -4.55093 8.50519
lfingers 7.12502
lthumb 21.2248 37.3632
rfemur -11.9238 17.3943 16.2315
rtibia 10.1744
rfoot -5.99396 -17.8952
rtoes -7.37152
lfemur -10.501 -16.2725 -16.6442
ltibia 14.0685
lfoot -5.87267 20.6301
ltoes -9.91095
1984
root 0.541611 18.2858 0.893431 10.454 -3.63461 -1.07874
lowerback -4.42577 -2.06847 2.96821
upperback -2.66616 -2.88392 4.51785
thorax -0.177106 -1.44915 2.86394
lowerneck -2.70369 2.96635 3.08166
upperneck 15.1429 4.96075 -8.36832
head 5.26551 2.08066 -2.85226
rclavicle 5.46658e-015 -3.18055e-014
rhumerus -35.8826 -14.5156 -38.8363
rradius 56.0372
rwrist 23.9492
rhand 1.49661 12.5038
rfingers 7.12502
rthumb 27.0231 -15.583
lclavicle 5.46658e-015 -3.18055e-014
lhumerus -131.552 -63.894 172.904
lradius 91.6274
lwrist 31.6564
lhand -4.5837 8.35813
lfingers 7.12502
lthumb 21.1934 37.2196
rfemur -11.5549 17.5184 16.3768
rtibia 9.71887
rfoot -5.90593 -17.939
rtoes -6.85067
lfemur -10.2068 -16.7944 -16.5776
ltibia 13.8523
lfoot -6.17366 21.2265
ltoes -8.71126
1985
root 0.535125 18.2884 0.894188 10.3772 -3.71995 -1.16842
lowerback -4.64111 -2.06146 2.98133
upperback -2.5941 -2.89165 4.49289
thorax 0.0155874 -1.45226 2.81989
lowerneck -2.00807 2.87784 3.14288
upperneck 15.7575 4.86499 -8.26798
head 5.32864 2.04524 -2.8497
rclavicle -1.13307e-014 3.81667e-014
rhumerus -35.7725 -15.8404 -38.9318
rradius 55.8335
rwrist 24.4379
rhand 0.319381 13.229
rfingers 7.12502
rthumb 25.8962 -15.0275
lclavicle -1.13307e-014 3.81667e-014
lhumerus -131.33 -64.2066 172.7
lradius 91.5766
lwrist 31.4955
lhand -4.51418 8.10415
lfingers 7.12502
lthumb 21.2601 36.9581
rfemur -11.1983 17.6348 16.5307
rtibia 9.22906
rfoot -5.86196 -17.9799
rtoes -5.63369
lfemur -10.0004 -17.3335 -16.4758
ltibia 13.7119
lfoot -6.2685 21.8495
ltoes -8.13437
1986
root 0.52865 18.2907 0.894785 10.2471 -3.83473 -1.29819
lowerback -4.80649 -2.08001 3.0154
upperback -2.48417 -2.93367 4.48936
thorax 0.220362 -1.47243 2.7857
lowerneck -1.33916 2.82898 3.19614
upperneck 16.3638 4.82798 -8.20473
head 5.39866 2.03542 -2.85386
rclavicle -2.32578e-014 2.22639e-014
rhumerus -35.508 -17.1844 -39.1325
rradius 55.5554
rwrist 24.8691
rhand -0.819193 14.0385
rfingers 7.12502
rthumb 24.8055 -14.3726
lclavicle -2.32578e-014 2.22639e-014
lhumerus -130.919 -64.5143 172.302
lradius 91.5539
lwrist 31.3159
lhand -4.50687 7.8925
lfingers 7.12502
lthumb 21.2672 36.7457
rfemur -10.7964 17.7889 16.7309
rtibia 8.74515
rfoot -5.77665 -18.0538
rtoes -4.75674
lfemur -9.72855 -17.8336 -16.3651
ltibia 13.5925
lfoot -6.30398 22.4587
ltoes -7.64041
1987
root 0.519534 18.2941 0.895675 10.116 -3.98774 -1.3521
lowerback -4.95153 -2.10905 2.9004
upperback -2.38374 -2.98187 4.4893
thorax 0.412027 -1.49479 2.83893
lowerneck -0.694164 2.79993 3.25673
upperneck 16.985 4.81929 -8.15038
head 5.48016 2.03858 -2.86053
rclavicle -1.2921e-015 3.18055e-015
rhumerus -35.2 -18.47 -39.3921
rradius 55.3163
rwrist 25.3677
rhand -1.70672 14.774
rfingers 7.12502
rthumb 23.9547 -13.7516
lclavicle -1.2921e-015 3.18055e-015
lhumerus -130.443 -64.7752 171.856
lradius 91.5082
lwrist 31.0171
lhand -4.5156 7.87002
lfingers 7.12502
lthumb 21.2588 36.7242
rfemur -10.4026 17.9662 16.8484
rtibia 8.26853
rfoot -5.64069 -18.1261
rtoes -4.27655
lfemur -9.46829 -18.34 -16.3385
ltibia 13.4815
lfoot -6.3305 23.1272
ltoes -7.14696
1988
root 0.51292 18.2983 0.898151 10.0109 -4.10781 -1.29559
lowerback -5.16683 -2.14137 2.72375
upperback -2.27708 -3.03451 4.4288
thorax 0.649571 -1.51922 2.86062
lowerneck -0.222062 2.77384 3.21937
upperneck 17.7825 4.80693 -7.95061
head 5.64209 2.03526 -2.80349
rclavicle -4.76089e-014 -1.27222e-014
rhumerus -34.9484 -19.699 -39.6949
rradius 55.1606
rwrist 25.8849
rhand -2.62341 15.3746
rfingers 7.12502
rthumb 23.0753 -13.2638
lclavicle -4.76089e-014 -1.27222e-014
lhumerus -129.966 -65.1029 171.381
lradius 91.456
lwrist 30.7806
lhand -4.2995 7.82107
lfingers 7.12502
lthumb 21.4663 36.6517
rfemur -10.036 18.0853 16.8307
rtibia 7.7786
rfoot -5.3966 -18.2305
rtoes -4.41508
lfemur -9.26323 -18.9373 -16.4302
ltibia 13.3958
lfoot -6.38573 23.8362
ltoes -6.54815
1989
root 0.508871 18.2982 0.901061 9.84061 -4.235 -1.37527
lowerback -5.36414 -2.16479 2.75076
upperback -2.11209 -3.08627 4.38822
thorax 0.927522 -1.54386 2.78831
lowerneck 0.225091 2.74189 3.10045
upperneck 18.5813 4.78965 -7.76283
head 5.80842 2.02289 -2.73654
rclavicle 4.96962e-016 -2.22639e-014
rhumerus -34.691 -20.7128 -40.0744
rradius 55.1082
rwrist 26.3415
rhand -3.57428 16.1393
rfingers 7.12502
rthumb 22.1627 -12.6103
lclavicle 4.96962e-016 -2.22639e-014
lhumerus -129.318 -65.5038 170.691
lradius 91.4474
lwrist 30.7784
lhand -3.76789 7.75185
lfingers 7.12502
lthumb 21.9768 36.5234
rfemur -9.59282 18.2375 16.9627
rtibia 7.29344
rfoot -5.34019 -18.3012
rtoes -3.70839
lfemur -8.93112 -19.5179 -16.4198
ltibia 13.3333
lfoot -6.72829 24.5035
ltoes -5.95247
